{"title":"The Beat Beneath My Feet.2014.WEBRiP.XViD.AC3.5.1.ReLeNTLesS","uid":12175442,"size":1179932272,"categoryP":"video","categoryS":"movies","magnet":"?xt=urn:btih:48184c24001dad502bd602f445bd2372a116f1e8&amp;dn=The+Beat+Beneath+My+Feet.2014.WEBRiP.XViD.AC3.5.1.ReLeNTLesS&amp;tr=udp%3A%2F%2Ftracker.openbittorrent.com%3A80&amp;tr=udp%3A%2F%2Fopen.demonii.com%3A1337&amp;tr=udp%3A%2F%2Ftracker.coppersurfer.tk%3A6969&amp;tr=udp%3A%2F%2Fexodus.desync.com%3A6969","seeders":0,"leechers":2,"uploader":"TvTeam","files":4,"time":1438301946,"description":"------------------------------------------------------------------------\n\n &lt;a href=&quot; https://www.torrenting.com&quot; rel=&quot;nofollow&quot; target=&quot;_NEW&quot;&gt; https://www.torrenting.com&lt;/a&gt;\n\nSign up is OPEN - for time being. Come and have fun\n\n.......................................................................................................................P0STER\n[img]http://i.imgur.com/ifDs4nV.png[/img]\n\niMDB: http://www.imdb.com/title/tt3064356/\n\nGeneral\nComplete name               : The Beat Beneath My Feet.2014.WEBRiP.XViD.AC3.5.1.ReLeNTLesS.avi\nFormat                      : AVI\nFormat/Info                 : Audio Video Interleave\nFile size                   : 1.09 GiB\nDuration                    : 1h 31mn\nOverall bit rate            : 1 701 Kbps\n\nVideo\nID                          : 0\nFormat                      : MPEG-4 Visual\nFormat profile              : Advanced Simple@L5\nFormat settings, BVOP       : 1\nFormat settings, QPel       : No\nFormat settings, GMC        : No warppoints\nFormat settings, Matrix     : Default (H.263)\nMuxing mode                 : Packed bitstream\nCodec ID                    : XVID\nCodec ID/Hint               : XviD\nDuration                    : 1h 31mn\nBit rate                    : 1 501 Kbps\nWidth                       : 720 pixels\nHeight                      : 400 pixels\nDisplay aspect ratio        : 16:9\nFrame rate                  : 23.976 fps\nColor space                 : YUV\nChroma subsampling          : 4:2:0\nBit depth                   : 8 bits\nScan type                   : Progressive\nCompression mode            : Lossy\nBits/(Pixel*Frame)          : 0.217\nStream size                 : 986 MiB (88%)\nWriting library             : XviD 1.2.1 (UTC 2008-12-04)\n\nAudio\nID                          : 1\nFormat                      : AC-3\nFormat/Info                 : Audio Coding 3\nMode extension              : CM (complete main)\nFormat settings, Endianness : Big\nCodec ID                    : 2000\nDuration                    : 1h 31mn\nBit rate mode               : Constant\nBit rate                    : 192 Kbps\nChannel(s)                  : 6 channels\nChannel positions           : Front: L C R, Side: L R, LFE\nSampling rate               : 48.0 KHz\nCompression mode            : Lossy\nStream size                 : 126 MiB (11%)\nAlignment                   : Aligned on interleaves\nInterleave, duration        : 64 ms (1.53 video frames)\nInterleave, preload duratio : 192 ms\nTitle                       : The Beat Beneath My Feet.2014.ReLeNTLesS.Audio.AC3.5.1.English_new\nSample Included             : Yes\nSource                      : 720 WEB-DL ReLeNTLesS cheers Bro\n\nPL0T\nA teenage boy discovers his unruly neighbour is really a disgraced Rock God who &quot;died&quot; 8 years ago owing a fortune in unpaid tax. The boy agrees not to reveal his secret on condition that he teaches him the dark arts of Rock Guitar.\n\nCAST\nDirector: John Williams\nWriters: Michael Mller, Michael Mller\nStars: Luke Perry, Nicholas Galitzine, Lisa Dillon\n\nSCREENS\n[img]http://i.imgur.com/0r8Mnpb.png[/img]\n[img]http://i.imgur.com/aP8dBE3.png[/img]\n[img]http://i.imgur.com/HmGucgq.png[/img]\n[img]http://i.imgur.com/zfnchXs.png[/img]\n[img]http://i.imgur.com/xF93E9O.png[/img]\n[img]http://i.imgur.com/FWGhsZ2.png[/img]\n\nTRAiLER\n\nGREETZ\n\n\nHIVE-CM8, Blackjesus, M0RPH, M00SE, MiLLENiUM,\n\nMANiX, TiTAN, Anonymous, TuX, \n\nACAB, KingStoner, FooKas, 4PlayHD, \n\nGodFather, Cld.... \n\nKeep up the good work guyz","torrent":{"xt":"urn:btih:48184c24001dad502bd602f445bd2372a116f1e8","amp;dn":"The+Beat+Beneath+My+Feet.2014.WEBRiP.XViD.AC3.5.1.ReLeNTLesS","amp;tr":["udp%3A%2F%2Ftracker.openbittorrent.com%3A80","udp%3A%2F%2Fopen.demonii.com%3A1337","udp%3A%2F%2Ftracker.coppersurfer.tk%3A6969","udp%3A%2F%2Fexodus.desync.com%3A6969"],"infoHash":"48184c24001dad502bd602f445bd2372a116f1e8","infoHashBuffer":{"type":"Buffer","data":[72,24,76,36,0,29,173,80,43,214,2,244,69,189,35,114,161,22,241,232]},"announce":[],"urlList":[]}}